<?xml version="1.0" standalone="no"?>
<!DOCTYPE svg PUBLIC "-//W3C//DTD SVG 20010904//EN"
 "http://www.w3.org/TR/2001/REC-SVG-20010904/DTD/svg10.dtd">
<svg version="1.0" xmlns="http://www.w3.org/2000/svg"
 width="710.000000pt" height="710.000000pt" viewBox="0 0 710.000000 710.000000"
 preserveAspectRatio="xMidYMid meet">
<metadata>
Created by potrace 1.11, written by Peter Selinger 2001-2013
</metadata>
<g transform="translate(0.000000,710.000000) scale(0.100000,-0.100000)"
fill="#000000" stroke="none">
<path d="M3535 6463 c-22 -14 -43 -31 -46 -36 -4 -5 -12 -6 -18 -3 -6 4 -10 2
-9 -4 2 -6 -23 -27 -55 -47 -49 -31 -68 -37 -132 -41 -70 -4 -78 -3 -152 33
-43 21 -103 47 -133 57 -56 18 -91 23 -55 8 19 -8 19 -9 -3 -9 -37 -1 -74 -28
-109 -79 -45 -65 -82 -104 -94 -96 -5 3 -8 0 -7 -7 2 -7 -21 -25 -51 -40 -61
-32 -138 -37 -227 -13 -122 31 -198 14 -234 -53 -9 -18 -21 -29 -25 -25 -5 4
-5 2 -2 -4 8 -14 -32 -114 -44 -114 -5 0 -9 -7 -9 -15 0 -26 -63 -83 -120
-109 -44 -19 -77 -25 -167 -29 -111 -6 -145 -16 -171 -50 -7 -9 -18 -15 -23
-12 -5 3 -6 -1 -3 -10 4 -8 2 -21 -4 -28 -5 -6 -9 -19 -9 -27 1 -52 -34 -185
-52 -200 -3 -3 -13 -18 -21 -34 -8 -16 -21 -31 -29 -34 -9 -3 -11 0 -6 8 5 8
4 11 -3 6 -6 -4 -9 -12 -7 -19 7 -18 -69 -57 -163 -83 -47 -13 -96 -31 -111
-41 -14 -10 -30 -16 -36 -14 -5 1 -7 -1 -3 -4 4 -4 1 -20 -8 -36 -11 -23 -13
-51 -8 -136 5 -85 3 -118 -9 -153 -9 -25 -21 -44 -27 -42 -6 1 -9 -2 -5 -8 13
-21 -60 -104 -114 -132 -15 -7 -48 -25 -74 -41 -27 -15 -52 -25 -57 -22 -5 3
-12 0 -16 -6 -4 -8 -3 -9 4 -5 18 11 14 -6 -8 -34 -26 -33 -25 -67 6 -180 42
-153 25 -252 -56 -338 -17 -18 -36 -29 -42 -26 -6 4 -8 3 -5 -3 3 -5 -12 -27
-34 -49 -58 -55 -73 -88 -65 -142 3 -25 11 -51 17 -58 33 -40 83 -136 95 -187
13 -47 13 -68 4 -115 -17 -79 -67 -172 -84 -154 -4 3 -4 -1 -1 -10 4 -11 0
-20 -13 -27 -22 -12 -45 -91 -38 -128 7 -35 21 -54 91 -127 84 -86 115 -151
115 -239 -1 -53 -21 -138 -42 -172 -3 -5 -9 -26 -13 -45 -20 -89 3 -141 83
-187 26 -15 53 -33 60 -40 7 -7 17 -13 21 -13 16 0 91 -85 86 -98 -2 -7 -1
-11 4 -7 5 3 17 -14 26 -37 12 -34 15 -73 13 -188 -3 -132 -1 -147 17 -172 22
-28 64 -50 135 -68 93 -25 200 -96 183 -123 -3 -6 -1 -7 6 -3 19 12 52 -80 67
-188 15 -109 39 -154 91 -174 15 -6 75 -15 133 -21 66 -7 119 -19 145 -32 54
-27 119 -100 140 -157 10 -26 31 -73 47 -105 25 -50 36 -61 83 -83 38 -19 59
-23 68 -16 6 5 50 15 97 22 159 23 238 -13 342 -155 71 -98 107 -120 177 -112
25 4 73 19 106 36 85 42 135 51 214 38 59 -10 96 -31 164 -93 70 -63 111 -84
165 -84 34 0 53 9 109 52 37 28 70 55 73 59 3 4 27 17 54 30 36 17 68 23 115
23 58 0 77 -5 155 -44 65 -32 106 -45 145 -48 67 -5 87 8 158 101 26 34 54 68
63 75 86 72 169 92 274 66 81 -20 239 -23 233 -4 -1 3 8 21 20 40 12 19 33 65
48 101 38 96 118 174 198 193 15 3 66 9 115 11 127 7 145 12 180 46 18 17 32
34 32 38 0 3 9 51 20 105 23 115 52 170 113 220 51 42 91 60 168 75 68 14 134
55 150 93 6 16 12 87 13 165 1 117 4 143 20 170 11 18 23 30 28 27 4 -3 5 1 2
9 -7 19 64 80 133 114 31 16 75 47 99 71 40 40 42 44 39 92 -2 28 -16 89 -31
136 -19 63 -25 97 -20 132 7 64 17 93 27 86 5 -3 6 1 4 9 -7 17 52 100 65 92
5 -3 7 0 5 8 -3 7 4 19 17 26 13 8 41 34 62 58 33 37 40 52 44 99 4 47 1 60
-23 94 -15 22 -24 44 -19 51 4 8 3 10 -4 5 -20 -12 -64 92 -70 165 -6 84 7
123 74 226 83 126 83 182 0 262 -19 19 -32 39 -29 44 3 6 2 7 -4 4 -6 -4 -21
5 -33 18 -13 14 -20 25 -15 25 5 0 -1 9 -14 21 -12 12 -20 28 -17 36 3 8 2 12
-3 9 -12 -8 -31 64 -31 118 0 26 14 88 31 138 32 96 37 128 24 168 -8 25 -82
100 -100 100 -5 0 -3 5 5 11 12 8 11 9 -6 5 -14 -4 -35 4 -65 25 -50 36 -60
49 -52 63 3 5 1 6 -5 2 -23 -14 -76 105 -76 174 0 14 3 64 8 113 9 95 1 129
-37 165 -21 20 -86 47 -136 58 -13 3 -34 10 -45 17 -12 6 -25 12 -31 12 -5 1
-9 6 -8 13 2 6 -3 9 -10 7 -20 -8 -87 62 -113 119 -25 56 -49 202 -39 239 5
16 4 18 -3 8 -8 -11 -11 -9 -17 8 -3 11 -21 32 -38 45 -28 21 -48 26 -137 32
-104 7 -170 23 -170 43 0 6 -8 11 -17 11 -43 1 -98 74 -148 197 -21 51 -44 98
-51 104 -8 6 -11 16 -7 22 3 5 1 7 -4 4 -6 -4 -25 -2 -43 5 -26 8 -57 7 -144
-6 -90 -14 -120 -15 -161 -6 -75 17 -190 110 -167 135 4 5 2 5 -4 2 -15 -8
-45 47 -38 70 5 15 4 16 -5 3 -10 -13 -13 -13 -26 4 -8 10 -12 24 -8 30 3 6 3
8 -2 4 -4 -4 -21 0 -37 8 -56 29 -95 23 -223 -36 -63 -29 -77 -32 -140 -28
-86 6 -129 27 -230 113 -73 62 -79 65 -129 65 -39 0 -61 -6 -91 -27z"/>
<path d="M4436 6313 c-6 -14 -5 -15 5 -6 7 7 10 15 7 18 -3 3 -9 -2 -12 -12z"/>
<path d="M836 4203 c-6 -14 -5 -15 5 -6 7 7 10 15 7 18 -3 3 -9 -2 -12 -12z"/>
<path d="M796 4167 c3 -10 9 -15 12 -12 3 3 0 11 -7 18 -10 9 -11 8 -5 -6z"/>
<path d="M655 3379 c-4 -6 -5 -12 -2 -15 2 -3 7 2 10 11 7 17 1 20 -8 4z"/>
<path d="M6350 3361 c0 -6 4 -13 10 -16 6 -3 7 1 4 9 -7 18 -14 21 -14 7z"/>
<path d="M5576 1655 c-9 -26 -7 -32 5 -12 6 10 9 21 6 23 -2 3 -7 -2 -11 -11z"/>
<path d="M2560 919 c0 -5 5 -7 10 -4 6 3 10 8 10 11 0 2 -4 4 -10 4 -5 0 -10
-5 -10 -11z"/>
</g>
</svg>
